<svg width="38" height="38" viewBox="0 0 38 38" fill="none" xmlns="http://www.w3.org/2000/svg">
<g filter="url(#filter0_d_110_147)">
<path d="M21.3065 4.68002L23.6532 9.37335C23.9732 10.0267 24.8265 10.6534 25.5465 10.7734L29.7999 11.48C32.5199 11.9334 33.1599 13.9067 31.1999 15.8534L27.8932 19.16C27.3332 19.72 27.0265 20.8 27.1999 21.5734L28.1465 25.6667C28.8932 28.9067 27.1732 30.16 24.3065 28.4667L20.3199 26.1067C19.5999 25.68 18.4132 25.68 17.6799 26.1067L13.6932 28.4667C10.8399 30.16 9.10655 28.8934 9.85321 25.6667L10.7999 21.5734C10.9732 20.8 10.6665 19.72 10.1065 19.16L6.79988 15.8534C4.85321 13.9067 5.47988 11.9334 8.19988 11.48L12.4532 10.7734C13.1599 10.6534 14.0132 10.0267 14.3332 9.37335L16.6799 4.68002C17.9599 2.13335 20.0399 2.13335 21.3065 4.68002Z" stroke="#686BFF" stroke-width="1.5" stroke-linecap="round" stroke-linejoin="round"/>
</g>
<defs>
<filter id="filter0_d_110_147" x="-1" y="0" width="40" height="40" filterUnits="userSpaceOnUse" color-interpolation-filters="sRGB">
<feFlood flood-opacity="0" result="BackgroundImageFix"/>
<feColorMatrix in="SourceAlpha" type="matrix" values="0 0 0 0 0 0 0 0 0 0 0 0 0 0 0 0 0 0 127 0" result="hardAlpha"/>
<feOffset dy="4"/>
<feGaussianBlur stdDeviation="2"/>
<feComposite in2="hardAlpha" operator="out"/>
<feColorMatrix type="matrix" values="0 0 0 0 0 0 0 0 0 0 0 0 0 0 0 0 0 0 0.25 0"/>
<feBlend mode="normal" in2="BackgroundImageFix" result="effect1_dropShadow_110_147"/>
<feBlend mode="normal" in="SourceGraphic" in2="effect1_dropShadow_110_147" result="shape"/>
</filter>
</defs>
</svg>
