<svg width="64" height="64" viewBox="0 0 64 64" fill="none" xmlns="http://www.w3.org/2000/svg">
<path d="M23.4933 5.33334L13.84 15.0133" stroke="#292D32" stroke-width="1.5" stroke-miterlimit="10" stroke-linecap="round" stroke-linejoin="round"/>
<path d="M40.5067 5.33334L50.16 15.0133" stroke="#292D32" stroke-width="1.5" stroke-miterlimit="10" stroke-linecap="round" stroke-linejoin="round"/>
<path d="M5.33337 20.9333C5.33337 16 7.97337 15.6 11.2534 15.6H52.7467C56.0267 15.6 58.6667 16 58.6667 20.9333C58.6667 26.6667 56.0267 26.2667 52.7467 26.2667H11.2534C7.97337 26.2667 5.33337 26.6667 5.33337 20.9333Z" stroke="#292D32" stroke-width="1.5"/>
<path d="M26.0266 37.3333V46.8" stroke="#292D32" stroke-width="1.5" stroke-linecap="round"/>
<path d="M38.2933 37.3333V46.8" stroke="#292D32" stroke-width="1.5" stroke-linecap="round"/>
<path d="M9.33337 26.6667L13.0934 49.7067C13.9467 54.88 16 58.6667 23.6267 58.6667H39.7067C48 58.6667 49.2267 55.04 50.1867 50.0267L54.6667 26.6667" stroke="#292D32" stroke-width="1.5" stroke-linecap="round"/>
</svg>
