<svg width="64" height="64" viewBox="0 0 64 64" fill="none" xmlns="http://www.w3.org/2000/svg">
<path d="M40 5.33334V32C40 34.9333 37.6 37.3333 34.6667 37.3333H5.33337V16C5.33337 10.1067 10.1067 5.33334 16 5.33334H40Z" stroke="#292D32" stroke-width="1.5" stroke-linecap="round" stroke-linejoin="round"/>
<path d="M58.6667 37.3333V45.3333C58.6667 49.76 55.0934 53.3333 50.6667 53.3333H48C48 50.4 45.6 48 42.6667 48C39.7334 48 37.3334 50.4 37.3334 53.3333H26.6667C26.6667 50.4 24.2667 48 21.3334 48C18.4 48 16 50.4 16 53.3333H13.3334C8.90671 53.3333 5.33337 49.76 5.33337 45.3333V37.3333H34.6667C37.6 37.3333 40 34.9333 40 32V13.3333H44.9067C46.8267 13.3333 48.5867 14.3734 49.5467 16.0267L54.1067 24H50.6667C49.2 24 48 25.2 48 26.6667V34.6667C48 36.1333 49.2 37.3333 50.6667 37.3333H58.6667Z" stroke="#292D32" stroke-width="1.5" stroke-linecap="round" stroke-linejoin="round"/>
<path d="M21.3333 58.6667C24.2789 58.6667 26.6667 56.2789 26.6667 53.3333C26.6667 50.3878 24.2789 48 21.3333 48C18.3878 48 16 50.3878 16 53.3333C16 56.2789 18.3878 58.6667 21.3333 58.6667Z" stroke="#292D32" stroke-width="1.5" stroke-linecap="round" stroke-linejoin="round"/>
<path d="M42.6667 58.6667C45.6122 58.6667 48 56.2789 48 53.3333C48 50.3878 45.6122 48 42.6667 48C39.7212 48 37.3334 50.3878 37.3334 53.3333C37.3334 56.2789 39.7212 58.6667 42.6667 58.6667Z" stroke="#292D32" stroke-width="1.5" stroke-linecap="round" stroke-linejoin="round"/>
<path d="M58.6667 32V37.3333H50.6667C49.2 37.3333 48 36.1333 48 34.6667V26.6667C48 25.2 49.2 24 50.6667 24H54.1067L58.6667 32Z" stroke="#292D32" stroke-width="1.5" stroke-linecap="round" stroke-linejoin="round"/>
</svg>
